<?xml version="1.0" standalone="no"?>
<!DOCTYPE svg PUBLIC "-//W3C//DTD SVG 20010904//EN"
 "http://www.w3.org/TR/2001/REC-SVG-20010904/DTD/svg10.dtd">
<svg version="1.0" xmlns="http://www.w3.org/2000/svg"
 width="280.000000pt" height="280.000000pt" viewBox="0 0 280.000000 280.000000"
 preserveAspectRatio="xMidYMid meet">
<metadata>
Created by potrace 1.10, written by Peter Selinger 2001-2011
</metadata>
<g transform="translate(0.000000,280.000000) scale(0.100000,-0.100000)"
fill="#000000" stroke="none">
<path d="M1390 2476 c0 -64 -3 -78 -25 -104 -17 -20 -21 -32 -13 -40 15 -15
38 -120 37 -172 l-1 -45 -10 44 c-12 54 -47 112 -82 135 -28 18 -46 14 -46
-10 0 -8 -16 -24 -35 -35 -19 -12 -35 -22 -35 -23 0 -2 24 -1 54 2 30 2 62 -1
75 -8 23 -12 61 -66 61 -87 0 -18 -25 -16 -44 3 -17 16 -19 13 -16 -23 2 -31
-28 -30 -40 1 -13 35 -49 56 -94 56 -33 0 -45 -6 -77 -42 l-39 -41 -21 27
c-80 102 -229 55 -229 -72 0 -69 81 -112 133 -72 51 41 26 137 -34 128 -34 -5
-48 -34 -26 -55 17 -17 19 -17 32 1 11 14 12 23 4 33 -8 9 -8 13 0 13 20 0 42
-46 35 -74 -19 -76 -124 -52 -124 29 0 79 39 111 129 106 35 -2 101 -72 101
-107 -1 -24 -11 -36 -61 -69 -72 -48 -153 -132 -206 -214 -41 -65 -55 -71
-103 -46 -55 28 -81 121 -51 178 8 15 30 34 49 43 32 15 38 15 68 0 38 -17 52
-54 38 -95 -8 -22 -15 -26 -48 -26 -50 0 -70 26 -41 52 18 17 18 17 6 0 -16
-20 -9 -32 14 -23 21 8 16 50 -7 54 -9 2 -24 -8 -34 -22 -15 -24 -15 -28 0
-51 47 -72 150 -20 131 67 -19 84 -148 90 -190 8 -30 -59 -16 -133 37 -182
l31 -29 -29 5 c-16 3 -32 0 -37 -7 -6 -9 -7 -8 -4 3 2 8 -2 23 -10 32 -14 16
-17 15 -48 -9 l-34 -27 32 -22 c31 -21 32 -21 56 -3 37 30 53 22 20 -10 -22
-23 -29 -39 -29 -70 0 -51 16 -85 46 -102 31 -16 28 -45 -4 -41 -21 3 -22 3
-5 -27 23 -38 13 -47 -29 -27 -52 25 -72 67 -65 135 l6 56 -16 -32 c-9 -17
-26 -37 -39 -44 -29 -15 -30 -23 -4 -59 26 -36 75 -67 126 -79 l39 -9 -40 -1
c-44 -1 -154 24 -169 39 -5 5 -21 -1 -38 -15 -25 -21 -40 -25 -99 -25 -39 0
-69 -4 -69 -10 0 -6 31 -10 73 -10 65 0 76 -3 96 -24 23 -24 23 -24 54 -6 18
11 61 24 97 29 81 13 90 13 90 1 0 -5 -12 -10 -26 -10 -38 0 -90 -28 -124 -66
-35 -40 -38 -60 -11 -67 11 -3 29 -20 40 -38 l21 -34 -6 51 c-8 61 12 106 56
129 57 30 68 8 23 -47 -16 -20 -19 -26 -7 -16 25 22 40 23 48 2 9 -22 8 -24
-9 -24 -22 0 -55 -59 -55 -98 0 -39 14 -71 44 -94 15 -13 17 -18 6 -17 -19 0
-50 23 -50 38 0 6 -5 11 -11 11 -6 0 -8 -7 -5 -16 3 -8 2 -12 -4 -9 -5 3 -24
-4 -42 -15 -19 -11 -26 -20 -17 -20 9 0 28 -11 42 -24 25 -24 26 -24 39 -4 7
10 31 23 53 28 l39 9 -33 -26 c-39 -31 -61 -77 -61 -131 0 -105 139 -162 191
-79 35 56 5 127 -53 127 -58 0 -85 -30 -68 -76 7 -19 16 -25 33 -22 31 4 31
43 0 42 -28 -1 -30 22 -4 36 29 15 49 12 71 -10 43 -43 8 -120 -56 -120 -66 0
-113 70 -94 139 13 50 41 85 82 102 25 10 33 10 36 0 2 -7 26 -46 53 -86 53
-78 139 -165 213 -211 51 -33 56 -52 25 -95 -69 -98 -209 -68 -209 44 0 52 22
77 68 77 22 0 36 -7 47 -24 28 -42 -6 -110 -38 -76 -9 10 -9 11 0 6 18 -10 25
10 8 24 -19 16 -45 6 -45 -18 0 -44 58 -57 84 -20 23 33 20 81 -7 106 -33 31
-72 28 -109 -8 -27 -28 -30 -36 -25 -76 13 -116 150 -152 224 -59 l27 33 27
-38 c21 -29 38 -41 65 -46 44 -8 103 17 111 47 8 29 39 20 35 -11 -2 -22 -1
-23 16 -7 28 26 55 22 47 -5 -21 -68 -62 -93 -140 -84 l-50 6 34 -21 c18 -11
35 -29 38 -40 16 -61 107 26 133 128 8 32 9 26 5 -36 -2 -45 -12 -89 -24 -114
l-20 -40 24 -29 c22 -26 25 -40 25 -104 0 -48 4 -73 10 -69 5 3 10 39 10 79 0
62 3 77 23 98 22 23 22 25 6 52 -17 28 -45 183 -35 193 6 6 7 4 25 -64 12 -44
68 -113 92 -113 8 0 19 10 24 22 6 13 22 29 38 36 15 7 27 18 27 23 0 6 -7 6
-19 -1 -41 -21 -91 -12 -127 24 -38 38 -45 76 -14 76 10 0 24 -8 30 -18 10
-15 11 -14 6 6 -8 38 22 40 51 4 43 -56 136 -52 168 7 13 23 14 24 15 5 0 -11
-9 -30 -21 -42 l-20 -22 20 -27 c12 -14 21 -33 21 -41 0 -9 12 4 28 28 l27 44
-22 22 c-13 13 -23 33 -23 45 0 19 3 18 40 -15 22 -19 51 -38 65 -42 96 -24
185 80 141 164 -41 80 -146 65 -149 -20 -2 -65 50 -100 88 -58 15 16 15 22 5
35 -7 8 -19 15 -27 15 -19 0 -28 -27 -13 -45 18 -22 -4 -18 -23 3 -19 21 -22
54 -7 83 8 13 21 19 45 19 69 0 97 -69 55 -137 -35 -59 -123 -58 -177 2 -48
51 -44 75 19 115 75 49 156 134 213 223 27 42 53 77 58 77 5 0 21 -7 35 -16
78 -46 96 -153 35 -210 -31 -29 -81 -32 -113 -6 -44 35 -23 122 30 122 20 0
60 -28 60 -42 0 -7 -5 -7 -14 1 -11 9 -18 8 -30 -4 -29 -30 -13 -51 30 -41 30
8 33 54 6 79 -28 25 -87 22 -106 -5 -60 -85 46 -185 134 -126 72 49 76 150 9
217 l-31 31 26 0 c14 0 33 -10 44 -25 19 -24 20 -24 37 -5 10 11 26 22 37 26
16 5 14 9 -18 33 l-38 27 -22 -23 c-13 -13 -31 -23 -41 -23 -13 0 -8 8 17 29
32 26 35 34 35 81 0 46 -4 55 -32 81 -38 33 -45 64 -13 56 21 -5 28 7 10 18
-14 9 -12 45 3 45 24 0 77 -40 82 -63 11 -43 12 -61 4 -94 -4 -18 -3 -33 2
-33 5 0 9 6 9 14 0 8 14 26 30 39 17 14 30 31 30 37 0 41 -93 110 -149 110
-20 0 -30 4 -26 10 12 20 199 -18 207 -41 2 -7 16 -1 32 15 25 23 37 26 97 26
37 0 71 5 74 10 4 6 -20 10 -64 10 -59 0 -74 4 -99 25 l-29 24 -40 -20 c-22
-11 -70 -22 -109 -25 l-69 -5 53 19 c55 20 122 75 122 100 0 8 -12 26 -27 41
-16 15 -34 35 -41 46 -7 11 -11 16 -8 10 14 -32 15 -89 2 -120 -13 -30 -66
-75 -88 -75 -14 0 -8 33 10 53 16 19 16 20 -10 15 -22 -4 -28 -1 -28 12 0 10
7 20 15 24 21 8 55 66 55 94 0 35 -28 88 -53 100 l-22 11 22 0 c12 1 30 -10
41 -24 l19 -24 23 24 c13 14 31 25 39 25 13 1 12 4 -4 16 -11 8 -28 21 -38 29
-15 13 -19 13 -37 -5 -11 -11 -24 -20 -29 -20 -5 0 -18 -3 -28 -7 -12 -5 -8 5
14 30 65 74 65 158 2 212 -43 35 -92 34 -130 -4 -72 -72 7 -183 89 -125 17 12
22 24 20 46 -4 42 -34 60 -53 34 -18 -24 -1 -49 26 -41 25 8 24 -11 0 -25 -28
-15 -67 -12 -81 5 -22 27 -14 77 16 103 34 30 78 22 117 -19 46 -50 33 -139
-29 -188 -44 -35 -68 -28 -105 32 -44 69 -160 189 -221 228 -41 26 -48 36 -48
63 1 58 59 106 128 106 35 0 49 -6 73 -29 55 -55 28 -151 -43 -151 -49 0 -78
69 -42 104 19 19 26 20 42 4 15 -15 16 -28 2 -28 -5 0 -10 8 -10 17 0 13 -3
14 -12 5 -9 -9 -8 -16 5 -29 16 -16 18 -16 33 -1 23 23 3 58 -35 58 -32 0 -45
-13 -55 -52 -14 -61 46 -113 100 -86 73 36 82 112 19 175 -52 52 -128 44 -188
-20 l-30 -32 7 30 c12 52 11 58 -3 63 -9 3 -11 0 -6 -9 6 -11 5 -12 -6 -1 -11
10 -10 15 4 27 9 8 15 12 12 9 -7 -11 24 -36 36 -29 7 5 4 14 -9 29 -11 11
-24 30 -30 41 -7 11 -12 14 -12 7 0 -8 -9 -27 -20 -43 l-21 -28 21 -21 c11
-11 20 -26 20 -34 0 -9 -11 -3 -29 15 -39 39 -96 40 -140 3 -17 -14 -31 -32
-31 -41 0 -8 -7 -13 -17 -11 -14 2 -17 11 -14 33 3 29 2 29 -16 12 -53 -47
-58 4 -7 71 11 15 82 28 113 21 33 -7 34 -6 16 6 -33 23 -55 48 -55 62 0 52
-93 -45 -115 -120 -9 -31 -19 -57 -22 -57 -16 0 23 195 43 211 13 10 12 15 -8
36 -16 17 -24 20 -30 11 -10 -17 -10 -30 1 -24 5 3 12 -1 15 -10 9 -24 7 -31
-5 -14 -9 13 -10 13 -8 0 5 -49 -13 -54 -31 -10 -12 28 -11 33 9 51 19 18 21
30 20 100 -2 100 -19 105 -19 5z m-86 -218 c-7 -11 -44 -10 -44 2 0 5 8 6 18
3 15 -6 16 -5 2 12 -14 17 -14 17 7 5 12 -8 19 -18 17 -22z m234 3 c3 -10 -1
-12 -17 -8 -11 3 -19 2 -16 -3 3 -4 -4 -10 -15 -13 -20 -5 -19 2 3 31 13 16
39 12 45 -7z m-208 -26 c11 -13 10 -14 -4 -9 -9 3 -16 10 -16 15 0 13 6 11 20
-6z m-88 -102 c10 -9 18 -22 18 -29 0 -24 -21 -26 -41 -5 -11 12 -26 21 -34
21 -16 0 -57 -49 -50 -60 4 -6 -36 -30 -50 -30 -9 0 6 65 20 87 30 45 97 53
137 16z m418 12 c16 -8 34 -24 40 -34 11 -21 14 -81 4 -81 -18 0 -43 23 -48
44 -8 33 -39 50 -66 36 -11 -6 -20 -15 -20 -20 0 -13 -27 -13 -35 0 -9 15 50
70 75 70 11 0 34 -7 50 -15z m-193 -41 c-3 -3 -12 -4 -19 -1 -8 3 -5 6 6 6 11
1 17 -2 13 -5z m-287 -24 c-11 -20 -30 -28 -30 -12 0 11 22 32 32 32 5 0 4 -9
-2 -20z m460 0 c8 -16 8 -20 -3 -20 -8 0 -17 9 -20 20 -3 11 -1 20 4 20 4 0
13 -9 19 -20z m-117 -4 c342 -66 588 -376 588 -741 0 -112 -6 -150 -37 -245
-101 -304 -374 -510 -674 -510 -270 0 -538 179 -651 436 -242 550 209 1168
774 1060z m82 4 c3 -5 2 -10 -4 -10 -5 0 -13 5 -16 10 -3 6 -2 10 4 10 5 0 13
-4 16 -10z m-998 -390 c-1 -22 -14 -25 -37 -9 -12 9 -12 10 4 5 13 -5 17 -2
13 8 -3 8 -3 17 0 20 10 10 22 -4 20 -24z m1607 12 c2 -4 0 -14 -5 -22 -8 -13
-10 -13 -18 0 -10 15 -6 30 9 30 5 0 11 -4 14 -8z m-1474 -42 c0 -13 -37 -50
-50 -50 -5 0 -15 -10 -21 -22 -9 -17 -8 -28 6 -55 10 -18 15 -36 11 -40 -11
-11 -39 11 -54 40 -17 35 0 100 31 122 24 17 77 20 77 5z m1401 -19 c22 -22
29 -39 29 -68 0 -42 -23 -83 -46 -83 -16 0 -19 37 -3 42 32 11 0 87 -37 88 -6
0 -16 11 -22 25 -11 24 -10 25 19 25 20 0 40 -10 60 -29z m-1431 -49 c0 -4 -9
-13 -21 -20 -19 -12 -19 -11 -9 8 10 19 30 28 30 12z m1400 -7 c20 -24 6 -28
-15 -5 -10 11 -13 20 -8 20 6 0 16 -7 23 -15z m-1574 -107 c4 -7 3 -8 -4 -4
-7 4 -12 3 -12 -3 0 -5 5 -11 12 -13 9 -3 21 -48 12 -48 -1 0 -11 15 -22 34
-15 25 -17 36 -9 40 7 2 13 5 14 5 1 1 5 -4 9 -11z m1756 -7 c-5 -3 -14 -16
-21 -28 -6 -13 -17 -23 -24 -22 -9 0 -9 2 1 6 6 2 12 17 12 33 0 24 3 27 21
23 11 -3 16 -9 11 -12z m-1828 -113 c-5 -7 13 -12 43 -11 7 1 10 -3 7 -8 -3
-5 -16 -6 -29 -3 -12 3 -26 1 -29 -5 -5 -7 -1 -8 11 -4 10 3 15 3 12 -1 -4 -4
-16 -8 -28 -11 -17 -3 -19 -1 -12 13 4 9 7 22 4 28 -2 6 3 11 11 11 8 0 13 -4
10 -9z m1886 1 c0 -6 7 -8 16 -5 13 5 14 4 6 -7 -7 -8 -9 -16 -6 -19 12 -13
-24 -15 -47 -2 l-24 14 22 6 c13 3 20 10 17 15 -3 5 0 9 5 9 6 0 11 -5 11 -11z
m-1915 -8 c3 -5 2 -12 -3 -15 -5 -3 -9 1 -9 9 0 17 3 19 12 6z m1852 -133 c0
-9 -5 -16 -11 -15 -14 3 -28 36 -20 48 7 13 31 -12 31 -33z m-1751 6 c1 -9 0
-13 -3 -10 -4 3 -12 1 -20 -6 -11 -8 -12 -7 -7 6 3 9 10 16 16 16 5 0 6 6 2
13 -4 6 -3 8 1 4 5 -4 10 -15 11 -23z m139 -74 c-23 -25 -12 -68 19 -80 23 -8
44 -45 32 -57 -10 -10 -55 7 -75 28 -37 40 -34 116 6 147 26 19 41 -13 18 -38z
m1495 -41 c0 -49 -43 -99 -84 -99 -14 0 -26 2 -26 5 0 17 26 54 40 58 30 8 41
40 24 72 -8 16 -12 36 -9 44 12 30 55 -34 55 -80z m-1472 -1 c7 -7 12 -15 12
-20 0 -12 -28 2 -34 18 -7 17 6 18 22 2z m1412 -13 c-7 -9 -15 -13 -18 -10 -3
2 1 11 8 20 7 9 15 13 18 10 3 -2 -1 -11 -8 -20z m-1496 -108 c-7 -18 -24 -23
-24 -7 0 6 5 10 12 10 6 0 8 3 5 6 -4 4 -13 1 -22 -6 -20 -17 -19 -6 1 15 19
19 38 7 28 -18z m1590 18 c-5 -11 -2 -13 12 -8 11 4 15 3 10 -5 -5 -8 -46 -14
-46 -6 0 11 14 34 21 34 4 0 6 -7 3 -15z m-1092 -376 c13 -6 28 -20 33 -32 11
-25 49 -34 70 -17 9 8 20 8 31 2 15 -8 15 -11 -5 -31 -23 -23 -79 -28 -113
-10 -25 13 -63 99 -43 99 2 0 15 -5 27 -11z m594 -34 c-16 -64 -100 -87 -152
-41 l-28 23 24 8 c15 5 25 4 28 -4 2 -6 17 -11 33 -11 21 0 32 7 40 24 12 26
52 49 57 34 2 -5 1 -20 -2 -33z m204 25 c0 -5 -5 -10 -11 -10 -5 0 -7 5 -4 10
3 6 8 10 11 10 2 0 4 -4 4 -10z m-730 -25 c7 -8 8 -15 2 -15 -5 0 -15 7 -22
15 -7 8 -8 15 -2 15 5 0 15 -7 22 -15z m458 3 c-2 -6 -10 -14 -16 -16 -7 -2
-10 2 -6 12 7 18 28 22 22 4z m102 -87 c7 -15 7 -19 -5 -17 -8 1 -18 6 -22 11
-5 4 -2 5 6 0 11 -6 13 -4 8 8 -9 23 0 21 13 -2z m-419 -72 c-13 -11 -31 -17
-39 -14 -12 4 -13 3 -2 -10 7 -8 8 -15 2 -15 -12 0 -38 30 -26 31 30 2 60 11
68 19 6 6 12 10 16 10 3 -1 -6 -10 -19 -21z m180 -3 c17 10 39 -4 33 -21 -3
-8 -9 -15 -14 -15 -14 0 -50 37 -43 44 4 4 9 2 11 -3 2 -6 8 -8 13 -5z m-84
-63 c7 -20 5 -36 -4 -53 -7 -14 -13 -19 -13 -12 0 7 -4 11 -9 7 -5 -3 -12 -1
-15 4 -4 5 -2 12 4 16 5 3 10 12 10 18 0 7 -4 6 -10 -3 -13 -20 -12 -10 1 28
12 36 23 34 36 -5z"/>
<path d="M1245 2046 c-255 -65 -447 -260 -516 -524 -28 -107 -28 -268 0 -376
68 -260 262 -458 511 -522 123 -32 291 -19 415 33 113 48 243 158 315 269 104
159 143 363 106 557 -52 269 -262 495 -522 561 -74 19 -237 20 -309 2z m304
-16 c210 -51 390 -210 474 -420 40 -101 50 -155 50 -275 1 -339 -207 -615
-521 -696 -191 -49 -409 0 -567 128 -256 207 -337 577 -194 882 44 94 85 154
100 145 5 -3 6 -10 3 -16 -4 -7 -2 -8 5 -4 9 6 9 11 -1 23 -20 24 94 123 207
179 150 74 288 91 444 54z"/>
<path d="M1437 2016 c-4 -10 -1 -13 8 -9 8 3 12 9 9 14 -7 12 -11 11 -17 -5z"/>
<path d="M1024 1879 c-3 -6 2 -18 12 -27 17 -16 17 -16 5 0 -7 9 -10 22 -6 28
3 5 4 10 1 10 -3 0 -8 -5 -12 -11z"/>
<path d="M1769 1878 c-7 -30 -5 -34 22 -34 15 0 26 3 23 7 -2 5 -12 5 -21 2
-10 -4 -14 -2 -9 5 3 6 2 13 -4 17 -5 3 -10 5 -11 3z"/>
<path d="M1512 1825 c-17 -19 -1 -19 24 0 14 11 15 14 4 14 -8 0 -21 -6 -28
-14z"/>
<path d="M1835 1792 c-35 -7 -38 -19 -5 -24 18 -3 37 0 43 7 7 6 18 10 26 7 8
-3 11 0 7 7 -7 10 -27 11 -71 3z"/>
<path d="M920 1778 c0 -4 4 -8 9 -8 6 0 12 4 15 8 3 5 -1 9 -9 9 -8 0 -15 -4
-15 -9z"/>
<path d="M1156 1783 c-11 -11 6 -23 30 -23 14 0 23 4 20 9 -7 11 -43 21 -50
14z"/>
<path d="M1750 1770 c-9 -6 -10 -10 -3 -10 6 0 15 5 18 10 8 12 4 12 -15 0z"/>
<path d="M1901 1745 c-1 -16 -4 -40 -7 -52 -4 -13 -2 -23 4 -23 13 0 19 39 11
75 l-7 30 -1 -30z"/>
<path d="M1766 1734 c-28 -28 -11 -94 25 -94 5 0 9 5 9 10 0 6 -5 10 -11 10
-5 0 -7 5 -3 12 5 8 2 9 -9 5 -11 -4 -17 -1 -17 7 0 30 13 46 36 46 13 0 24 5
24 10 0 16 -37 12 -54 -6z"/>
<path d="M1625 1730 c-3 -5 -1 -10 4 -10 6 0 11 5 11 10 0 6 -2 10 -4 10 -3 0
-8 -4 -11 -10z"/>
<path d="M1844 1706 c4 -18 3 -25 -3 -21 -7 4 -8 -1 -4 -11 5 -13 3 -16 -10
-11 -11 4 -14 2 -10 -9 7 -18 13 -18 29 4 17 21 18 58 3 68 -9 5 -10 -1 -5
-20z"/>
<path d="M1690 1694 c0 -8 5 -12 10 -9 6 4 8 11 5 16 -9 14 -15 11 -15 -7z"/>
<path d="M1925 1702 c-2 -2 -2 -16 1 -31 4 -21 0 -31 -20 -46 -14 -11 -26 -25
-26 -32 0 -8 13 -1 30 14 17 14 30 34 30 44 0 10 5 21 10 24 15 9 12 32 -5 32
-8 0 -17 -2 -20 -5z"/>
<path d="M1660 1690 c0 -5 5 -10 10 -10 6 0 10 5 10 10 0 6 -4 10 -10 10 -5 0
-10 -4 -10 -10z"/>
<path d="M1539 1663 l-24 -28 30 25 c17 14 32 26 34 28 2 1 0 2 -6 2 -5 0 -20
-12 -34 -27z"/>
<path d="M1622 1681 c2 -7 7 -12 11 -12 12 1 9 15 -3 20 -7 2 -11 -2 -8 -8z"/>
<path d="M1043 1626 c-15 -31 -37 -59 -50 -65 -30 -14 -98 -14 -123 -1 -18 10
-40 -4 -26 -17 11 -12 96 -15 125 -5 40 14 39 6 -5 -39 -32 -33 -39 -36 -82
-31 -60 5 -122 -18 -122 -47 0 -47 87 -51 151 -7 l33 23 54 -19 c87 -30 151
-40 189 -27 18 6 33 14 33 18 0 17 -14 19 -34 6 -11 -8 -32 -15 -47 -15 -24 0
-152 35 -171 47 -9 5 54 104 93 148 32 37 50 70 42 79 -17 16 -36 1 -60 -48z
m47 35 c0 -5 -9 -19 -20 -32 l-21 -24 16 33 c15 31 25 41 25 23z m-195 -227
c-27 -20 -90 -38 -109 -31 -43 17 9 45 84 46 42 0 44 -1 25 -15z"/>
<path d="M1190 1676 c0 -2 8 -10 18 -17 15 -13 16 -12 3 4 -13 16 -21 21 -21
13z"/>
<path d="M1335 1670 c3 -5 8 -10 11 -10 2 0 4 5 4 10 0 6 -5 10 -11 10 -5 0
-7 -4 -4 -10z"/>
<path d="M1388 1650 c-18 -25 -29 -30 -64 -30 -52 0 -74 -8 -74 -26 0 -18 10
-17 34 1 11 8 33 15 48 15 l28 0 -25 -49 c-23 -45 -66 -91 -86 -91 -17 0 -9
19 11 25 11 4 28 18 37 31 15 23 15 27 0 41 -14 15 -18 15 -43 -2 -24 -15 -29
-16 -38 -3 -6 8 -19 17 -29 21 -15 6 -22 -1 -35 -33 -18 -41 -38 -55 -29 -19
5 20 -22 59 -42 59 -14 0 -36 -31 -38 -54 -1 -12 -4 -32 -5 -46 -4 -34 27 -38
59 -8 23 21 25 22 34 5 15 -27 38 -20 60 18 24 40 43 47 29 10 -20 -54 23 -74
74 -34 21 17 26 18 26 5 0 -21 29 -20 52 1 17 15 18 15 18 -2 0 -12 6 -16 20
-12 18 5 19 3 5 -15 -11 -17 -26 -21 -74 -22 -81 -3 -121 -39 -70 -66 26 -15
76 -4 114 25 28 21 35 22 92 12 50 -8 67 -7 92 6 17 9 31 13 31 11 0 -3 -11
-27 -25 -54 -21 -42 -31 -51 -67 -60 -40 -11 -67 -10 -117 6 -18 5 -23 4 -19
-6 10 -30 121 -35 156 -8 24 20 12 -5 -24 -49 l-36 -44 -52 6 c-58 7 -122 -12
-132 -40 -19 -49 87 -63 151 -19 24 16 46 24 59 20 12 -2 52 -14 91 -25 83
-25 157 -27 175 -6 20 24 2 31 -31 11 -20 -12 -40 -15 -62 -11 -32 6 -156 44
-169 52 -4 2 8 24 27 48 18 25 36 54 40 65 3 11 11 20 16 20 11 0 69 79 69 95
0 19 -52 25 -77 9 -23 -14 -89 -17 -133 -5 l-24 7 36 27 c37 29 73 75 65 83
-3 3 -15 -11 -27 -30 -30 -49 -45 -45 -20 5 33 63 18 70 -25 11 -43 -61 -57
-62 -26 -1 14 27 19 45 12 52 -6 6 -15 -3 -26 -24 -19 -38 -54 -79 -67 -79
-14 0 32 105 55 122 44 34 57 48 57 63 0 26 -38 16 -62 -15z m37 -10 c-10 -11
-20 -18 -23 -15 -7 6 18 35 31 35 5 0 2 -9 -8 -20z m-319 -85 c7 -17 -25 -76
-44 -83 -15 -5 -5 26 15 46 15 15 17 42 4 42 -5 0 -12 -6 -14 -12 -3 -8 -6 -6
-6 5 -1 21 37 24 45 2z m80 -33 c-15 -28 -36 -51 -36 -38 0 3 7 24 16 46 11
26 20 38 26 32 6 -6 4 -21 -6 -40z m84 -4 c-32 -26 -38 -13 -9 18 15 16 25 21
28 13 2 -7 -6 -21 -19 -31z m360 -100 c0 -7 -10 -24 -21 -38 -11 -14 -18 -20
-15 -14 3 6 10 23 15 38 11 28 21 34 21 14z m-240 -3 c0 -2 -13 -11 -30 -20
-51 -26 -130 -13 -83 14 18 10 113 15 113 6z m50 -220 c0 -15 -70 -45 -103
-45 -31 0 -38 3 -35 17 2 10 16 21 33 24 38 8 105 11 105 4z"/>
<path d="M1273 1655 c0 -8 4 -12 9 -9 5 3 6 10 3 15 -9 13 -12 11 -12 -6z"/>
<path d="M1580 1662 c0 -5 7 -13 16 -16 10 -4 14 -1 12 6 -5 15 -28 23 -28 10z"/>
<path d="M966 1643 c-6 -14 -5 -15 5 -6 7 7 10 15 7 18 -3 3 -9 -2 -12 -12z"/>
<path d="M995 1650 c-3 -5 -1 -10 4 -10 6 0 11 5 11 10 0 6 -2 10 -4 10 -3 0
-8 -4 -11 -10z"/>
<path d="M1867 1639 c-10 -11 -16 -23 -13 -26 8 -8 38 25 34 37 -2 6 -11 1
-21 -11z"/>
<path d="M845 1631 c-36 -4 -55 -9 -47 -14 7 -5 22 -5 33 -2 15 5 19 4 15 -4
-11 -17 25 -12 64 9 38 21 37 21 -65 11z"/>
<path d="M1545 1631 c-6 -11 9 -23 19 -14 9 9 7 23 -3 23 -6 0 -12 -4 -16 -9z"/>
<path d="M1693 1633 c9 -2 25 -2 35 0 9 3 1 5 -18 5 -19 0 -27 -2 -17 -5z"/>
<path d="M1501 1608 c-7 -11 -8 -17 -2 -13 6 3 11 1 11 -4 0 -6 7 -11 15 -11
18 0 19 9 2 32 -12 15 -14 15 -26 -4z"/>
<path d="M1813 1613 c-10 -3 -9 -8 2 -20 8 -8 15 -25 15 -39 0 -13 4 -24 8
-24 5 0 8 15 8 34 -1 19 -5 31 -10 28 -5 -3 -7 2 -3 11 6 17 2 19 -20 10z"/>
<path d="M926 1595 c-17 -13 -16 -14 10 -11 15 2 30 8 32 15 5 15 -19 13 -42
-4z"/>
<path d="M1633 1598 c-13 -6 -23 -16 -24 -22 0 -6 -2 -22 -3 -35 -2 -13 7 -35
20 -50 13 -14 24 -21 24 -15 0 6 -7 17 -15 24 -36 30 -5 100 45 100 25 0 60
-34 60 -60 0 -21 -45 -64 -59 -56 -5 4 -12 2 -16 -4 -13 -21 42 -9 63 13 61
65 -13 145 -95 105z"/>
<path d="M983 1585 c0 -8 4 -12 9 -9 5 3 6 10 3 15 -9 13 -12 11 -12 -6z"/>
<path d="M825 1579 c-4 -6 -5 -12 -2 -15 2 -3 7 2 10 11 7 17 1 20 -8 4z"/>
<path d="M780 1578 c0 -14 23 -58 32 -58 4 0 8 4 8 9 0 11 -39 59 -40 49z"/>
<path d="M1655 1571 c-6 -11 9 -23 19 -14 9 9 7 23 -3 23 -6 0 -12 -4 -16 -9z"/>
<path d="M1767 1557 c-4 -10 -7 -26 -7 -35 0 -14 2 -14 9 -3 5 7 14 10 20 7 6
-4 11 -2 11 3 0 6 -4 11 -9 11 -5 0 -11 8 -13 18 -3 16 -4 16 -11 -1z"/>
<path d="M1878 1565 c-4 -4 -4 -14 -1 -22 3 -8 -4 -28 -17 -45 -12 -16 -19
-32 -16 -36 6 -5 28 18 45 48 9 17 0 65 -11 55z"/>
<path d="M1695 1536 c0 -13 3 -22 8 -19 4 2 7 13 7 24 0 10 -3 19 -7 19 -5 0
-8 -11 -8 -24z"/>
<path d="M1635 1540 c3 -5 8 -10 11 -10 2 0 4 5 4 10 0 6 -5 10 -11 10 -5 0
-7 -4 -4 -10z"/>
<path d="M1566 1532 c-3 -6 -1 -14 5 -17 15 -10 25 3 12 16 -7 7 -13 7 -17 1z"/>
<path d="M1660 1520 c0 -5 5 -10 11 -10 5 0 7 5 4 10 -3 6 -8 10 -11 10 -2 0
-4 -4 -4 -10z"/>
<path d="M1530 1510 c0 -5 5 -10 10 -10 6 0 10 5 10 10 0 6 -4 10 -10 10 -5 0
-10 -4 -10 -10z"/>
<path d="M1815 1490 c-9 -17 -13 -36 -9 -42 4 -7 3 -8 -4 -4 -6 4 -23 -1 -37
-10 -20 -13 -23 -19 -13 -25 8 -5 17 -3 23 5 6 8 19 15 30 17 14 3 20 13 20
31 1 14 7 33 14 42 9 10 9 16 2 16 -6 0 -18 -14 -26 -30z"/>
<path d="M820 1501 c0 -5 7 -12 16 -15 14 -5 15 -4 4 9 -14 17 -20 19 -20 6z"/>
<path d="M883 1497 c0 -7 9 -14 20 -14 11 -1 18 -1 16 0 -2 2 -11 8 -20 15
-12 9 -16 9 -16 -1z"/>
<path d="M1750 1480 c0 -5 5 -10 11 -10 5 0 7 5 4 10 -3 6 -8 10 -11 10 -2 0
-4 -4 -4 -10z"/>
<path d="M1181 1457 c-8 -10 -7 -14 2 -14 8 0 14 6 14 14 0 7 -1 13 -2 13 -2
0 -8 -6 -14 -13z"/>
<path d="M932 1397 c-7 -8 -4 -20 12 -38 30 -35 58 -49 96 -49 25 0 31 -4 26
-15 -7 -19 1 -19 21 1 9 8 22 13 29 10 8 -3 14 -1 14 4 0 6 -17 10 -38 10 -21
0 -43 5 -49 11 -7 7 -13 7 -17 1 -4 -7 -17 -5 -36 5 -17 8 -28 18 -25 23 3 5
1 11 -5 15 -6 4 -8 10 -5 15 9 14 -12 21 -23 7z m15 -4 c-4 -3 -1 -13 6 -22
11 -14 10 -14 -5 -2 -16 12 -16 31 -1 31 4 0 3 -3 0 -7z"/>
<path d="M970 1395 c0 -8 4 -15 10 -15 5 0 7 7 4 15 -4 8 -8 15 -10 15 -2 0
-4 -7 -4 -15z"/>
<path d="M1808 1394 c12 -8 22 -22 22 -30 0 -8 5 -14 10 -14 14 0 12 12 -6 38
-8 12 -23 22 -32 22 -13 0 -12 -3 6 -16z"/>
<path d="M1422 1384 c-7 -8 -8 -14 -2 -14 5 0 10 -5 10 -11 0 -5 -4 -7 -10 -4
-5 3 -18 1 -27 -5 -15 -9 -14 -10 6 -4 18 5 22 3 16 -7 -5 -8 -5 -11 0 -7 4 4
14 3 21 -3 10 -8 12 -6 9 10 -2 12 -6 25 -9 30 -4 5 -1 11 6 13 7 3 8 7 3 10
-6 3 -16 0 -23 -8z"/>
<path d="M1663 1383 c4 -3 1 -13 -6 -22 -11 -14 -10 -14 5 -2 16 12 16 31 1
31 -4 0 -3 -3 0 -7z"/>
<path d="M1780 1380 c0 -5 5 -10 11 -10 5 0 7 5 4 10 -3 6 -8 10 -11 10 -2 0
-4 -4 -4 -10z"/>
<path d="M996 1356 c10 -8 21 -12 24 -10 5 6 -21 24 -34 24 -6 0 -1 -6 10 -14z"/>
<path d="M1170 1359 c0 -5 5 -7 10 -4 6 3 10 8 10 11 0 2 -4 4 -10 4 -5 0 -10
-5 -10 -11z"/>
<path d="M1718 1363 c6 -2 9 -10 6 -15 -4 -7 -2 -8 4 -4 18 11 14 26 -5 25
-11 0 -13 -3 -5 -6z"/>
<path d="M1231 1338 c-1 -15 4 -30 9 -33 12 -7 12 12 0 40 -8 18 -9 17 -9 -7z"/>
<path d="M1480 1350 c0 -13 11 -13 30 0 12 8 11 10 -7 10 -13 0 -23 -4 -23
-10z"/>
<path d="M1613 1325 c-29 -20 -51 -91 -34 -108 9 -9 16 -9 31 1 24 15 33 15
25 2 -3 -6 1 -13 11 -17 11 -4 24 2 37 18 13 16 21 20 24 12 8 -22 23 -14 23
10 0 26 50 81 50 56 1 -10 4 -8 11 4 15 25 -3 44 -21 22 -7 -8 -18 -15 -24
-15 -6 0 -4 4 4 10 8 5 11 12 8 15 -11 12 -28 -5 -52 -54 -23 -45 -57 -84 -56
-65 1 5 9 25 19 44 17 31 17 36 4 57 -18 27 -31 29 -60 8z m27 -59 c-12 -20
-28 -36 -36 -36 -16 0 -9 23 20 63 29 40 44 17 16 -27z"/>
<path d="M1832 1333 c-15 -6 -52 -75 -52 -98 0 -20 28 -31 43 -16 14 14 30 15
22 1 -3 -6 1 -13 9 -16 17 -7 46 12 46 29 0 5 -9 2 -20 -8 -25 -22 -25 -11 -1
35 17 31 17 36 4 57 -15 23 -26 26 -51 16z m19 -66 c-12 -19 -28 -38 -36 -41
-19 -7 -19 -2 1 37 25 48 36 59 47 48 6 -6 2 -22 -12 -44z"/>
<path d="M1937 1308 c-37 -50 -39 -56 -27 -78 17 -32 58 -25 96 16 19 19 34
40 34 46 0 6 -17 -7 -38 -30 -39 -42 -56 -50 -66 -33 -3 5 7 14 23 20 38 16
59 54 41 76 -19 23 -37 18 -63 -17z m49 -15 c-6 -17 -44 -48 -51 -41 -2 2 8
18 22 36 26 34 39 37 29 5z"/>
<path d="M1277 1296 c-4 -10 -5 -21 -2 -24 9 -9 17 6 13 25 -3 17 -4 17 -11
-1z"/>
<path d="M1150 1289 c0 -5 5 -7 10 -4 6 3 10 8 10 11 0 2 -4 4 -10 4 -5 0 -10
-5 -10 -11z"/>
<path d="M1203 1274 c-7 -16 -8 -22 0 -17 6 4 8 0 4 -11 -6 -14 -3 -15 13 -6
11 6 20 13 20 16 0 3 -5 2 -12 -2 -7 -5 -9 -2 -6 8 11 27 -7 38 -19 12z"/>
<path d="M1037 1273 c-4 -3 -7 -21 -7 -39 0 -34 36 -78 73 -90 30 -9 32 4 3
15 -14 6 -26 15 -26 20 0 5 -9 12 -19 16 -16 5 -19 14 -17 45 3 42 3 44 -7 33z"/>
<path d="M1353 1265 c0 -8 4 -12 9 -9 4 3 8 9 8 15 0 5 -4 9 -8 9 -5 0 -9 -7
-9 -15z"/>
<path d="M1436 1261 c-3 -5 1 -11 9 -14 9 -4 12 -1 8 9 -6 16 -10 17 -17 5z"/>
<path d="M1077 1230 c9 -16 23 -30 31 -30 7 0 11 -4 8 -9 -3 -5 1 -12 10 -15
27 -11 28 -7 0 19 -14 13 -26 27 -26 30 0 8 -27 35 -35 35 -3 0 2 -13 12 -30z"/>
<path d="M1256 1244 c-9 -24 -2 -26 12 -4 7 11 8 20 3 20 -5 0 -12 -7 -15 -16z"/>
<path d="M1138 1223 c7 -3 16 -2 19 1 4 3 -2 6 -13 5 -11 0 -14 -3 -6 -6z"/>
<path d="M1208 1208 c-10 -10 -14 -18 -9 -18 10 0 36 29 30 34 -2 1 -12 -6
-21 -16z"/>
<path d="M1530 1221 c0 -6 4 -13 10 -16 6 -3 7 1 4 9 -7 18 -14 21 -14 7z"/>
<path d="M1719 1190 c-29 -33 -24 -41 7 -12 16 14 31 43 22 42 -2 -1 -15 -14
-29 -30z"/>
<path d="M2003 1205 c0 -8 4 -12 9 -9 5 3 6 10 3 15 -9 13 -12 11 -12 -6z"/>
<path d="M1239 1208 c-7 -24 -7 -48 0 -48 5 0 11 11 13 25 3 14 1 25 -3 25 -5
0 -9 -1 -10 -2z"/>
<path d="M1760 1202 c0 -12 19 -26 26 -19 2 2 -2 10 -11 17 -9 8 -15 8 -15 2z"/>
<path d="M793 1165 c0 -22 2 -30 4 -17 2 12 2 30 0 40 -3 9 -5 -1 -4 -23z"/>
<path d="M1162 1168 c-7 -7 -12 -19 -12 -27 0 -11 5 -9 20 7 11 12 20 24 20
27 0 9 -16 5 -28 -7z"/>
<path d="M1490 1145 c1 -6 7 -21 16 -35 l15 -25 -7 25 c-7 26 -24 52 -24 35z"/>
<path d="M1166 1121 c-4 -6 -13 -8 -21 -5 -20 8 -12 -26 9 -38 11 -6 15 -16
11 -29 -8 -24 11 -49 36 -49 23 0 41 32 32 56 -5 13 -3 15 8 9 8 -4 11 -5 7 0
-4 4 2 15 14 25 15 12 18 19 9 24 -7 4 -10 2 -9 -5 2 -6 -3 -14 -11 -17 -8 -2
-11 0 -7 6 3 6 2 13 -3 16 -4 3 -8 -4 -7 -17 1 -18 -4 -22 -29 -22 -16 0 -36
4 -42 9 -14 9 -8 26 8 26 6 0 8 -4 5 -8 -3 -5 1 -9 9 -9 12 0 12 3 3 16 -7 9
-13 17 -14 19 -1 2 -5 -1 -8 -7z m54 -80 c0 -27 -19 -36 -37 -18 -18 18 -9 37
18 37 12 0 19 -7 19 -19z"/>
<path d="M1475 1120 c6 -10 4 -12 -11 -6 -15 6 -17 5 -6 -5 9 -9 15 -10 23 -2
8 8 7 13 -2 18 -8 6 -10 4 -4 -5z"/>
<path d="M1330 1105 c0 -7 30 -13 34 -7 3 4 -4 9 -15 9 -10 1 -19 0 -19 -2z"/>
<path d="M1565 1099 c-4 -6 -14 -8 -22 -4 -14 5 -14 3 -2 -11 12 -15 12 -16
-6 -11 -29 9 -48 -7 -51 -41 -2 -27 0 -29 36 -29 37 0 38 1 35 32 -2 26 1 32
14 31 9 -2 17 -13 17 -25 2 -32 21 -48 42 -35 18 11 28 74 13 74 -6 0 -11 -15
-13 -32 -4 -41 -21 -43 -28 -3 -4 20 -11 30 -23 29 -20 -2 -22 7 -5 24 7 7 9
12 6 12 -4 0 -10 -5 -13 -11z m-19 -50 c8 -14 -21 -43 -35 -35 -19 12 -13 46
8 46 11 0 23 -5 27 -11z"/>
<path d="M1640 1096 c0 -2 7 -6 15 -10 8 -3 15 -1 15 4 0 6 -7 10 -15 10 -8 0
-15 -2 -15 -4z"/>
<path d="M1079 1078 c0 -2 -1 -19 -2 -38 -2 -26 2 -36 16 -38 10 -2 24 1 32 8
20 16 4 64 -23 68 -12 2 -22 2 -23 0z m36 -28 c-3 -5 -10 -10 -16 -10 -5 0 -9
5 -9 10 0 6 7 10 16 10 8 0 12 -4 9 -10z m5 -30 c0 -5 -7 -10 -15 -10 -8 0
-15 5 -15 10 0 6 7 10 15 10 8 0 15 -4 15 -10z"/>
<path d="M1308 1048 c-4 -40 -22 -44 -26 -5 -2 15 -7 27 -12 27 -5 0 -7 -14
-3 -32 5 -28 4 -31 -13 -25 -16 6 -15 4 4 -12 12 -11 22 -25 22 -33 0 -10 2
-10 9 1 7 10 4 19 -7 28 -16 12 -16 13 1 7 23 -8 47 13 47 42 0 36 -18 38 -22
2z"/>
<path d="M1355 1070 c-3 -5 1 -10 10 -10 11 0 15 -6 11 -17 -3 -10 -1 -25 4
-33 7 -11 10 -7 10 18 0 22 5 32 16 32 8 0 12 5 9 10 -3 6 -17 10 -30 10 -13
0 -27 -4 -30 -10z"/>
<path d="M1678 1052 c-6 -42 0 -52 30 -51 24 2 24 2 5 6 -29 5 -30 23 -2 23
11 0 18 4 14 10 -3 5 -12 7 -20 3 -8 -3 -15 0 -15 6 0 6 9 11 21 11 11 0 17 5
14 10 -13 22 -43 10 -47 -18z"/>
<path d="M1440 1033 c0 -20 3 -34 6 -30 9 9 11 67 2 67 -4 0 -8 -16 -8 -37z"/>
<path d="M1740 1036 c0 -8 4 -17 9 -20 5 -4 7 3 4 14 -6 23 -13 26 -13 6z"/>
<path d="M820 1026 c0 -2 8 -10 18 -17 15 -13 16 -12 3 4 -13 16 -21 21 -21
13z"/>
<path d="M1349 1023 c-1 -5 -1 -12 0 -17 1 -4 -4 -16 -11 -25 -12 -14 -11 -14
4 -3 9 7 16 22 15 33 -1 19 -6 26 -8 12z"/>
<path d="M1400 1000 c-6 -12 -9 -24 -7 -27 3 -2 11 5 17 17 6 12 9 24 7 27 -3
2 -11 -5 -17 -17z"/>
<path d="M866 997 c3 -10 9 -15 12 -12 3 3 0 11 -7 18 -10 9 -11 8 -5 -6z"/>
<path d="M1143 982 c-8 -14 -8 -19 1 -19 7 0 13 9 13 19 1 10 1 18 0 18 -1 0
-7 -8 -14 -18z"/>
<path d="M1310 981 c-13 -25 -13 -41 1 -41 6 0 9 6 6 13 -2 6 0 20 5 30 5 9 6
17 4 17 -3 0 -10 -9 -16 -19z"/>
<path d="M1644 992 c6 -10 1 -11 -21 -6 -25 7 -27 6 -14 -9 7 -9 17 -14 22
-11 5 3 9 1 9 -4 0 -5 11 -14 25 -20 40 -18 33 15 -9 48 -13 10 -17 10 -12 2z"/>
<path d="M1070 970 c-9 -6 -10 -10 -3 -10 6 0 15 5 18 10 8 12 4 12 -15 0z"/>
<path d="M1486 968 c3 -5 10 -6 15 -3 13 9 11 12 -6 12 -8 0 -12 -4 -9 -9z"/>
<path d="M1361 934 c-16 -37 -9 -39 11 -3 9 16 14 29 9 29 -4 0 -13 -12 -20
-26z"/>
<path d="M1320 909 c-13 -24 -4 -41 10 -19 10 16 13 40 5 40 -2 0 -9 -9 -15
-21z"/>
<path d="M1846 871 c-4 -5 -2 -12 3 -15 5 -4 12 -2 15 3 4 5 2 12 -3 15 -5 4
-12 2 -15 -3z"/>
<path d="M1691 744 c0 -11 3 -14 6 -6 3 7 2 16 -1 19 -3 4 -6 -2 -5 -13z"/>
<path d="M1558 713 c7 -3 16 -2 19 1 4 3 -2 6 -13 5 -11 0 -14 -3 -6 -6z"/>
<path d="M1198 693 c6 -2 18 -2 25 0 6 3 1 5 -13 5 -14 0 -19 -2 -12 -5z"/>
<path d="M1528 693 c7 -3 16 -2 19 1 4 3 -2 6 -13 5 -11 0 -14 -3 -6 -6z"/>
<path d="M2332 1341 c-11 -7 -11 -9 0 -14 9 -3 15 1 15 9 0 8 -1 14 -1 14 -1
0 -7 -4 -14 -9z"/>
<path d="M1307 2362 c-15 -16 -15 -19 -2 -19 8 0 13 3 10 5 -3 3 0 11 6 19 17
20 5 16 -14 -5z"/>
<path d="M1383 2345 c0 -8 4 -15 9 -15 4 0 8 4 8 9 0 6 -4 12 -8 15 -5 3 -9
-1 -9 -9z"/>
<path d="M1326 2307 c3 -10 9 -15 12 -12 3 3 0 11 -7 18 -10 9 -11 8 -5 -6z"/>
<path d="M1205 2299 c-11 -16 -1 -19 13 -3 7 8 8 14 3 14 -5 0 -13 -5 -16 -11z"/>
<path d="M1060 2246 c0 -7 -9 -25 -20 -38 -19 -25 -19 -26 0 -43 11 -10 20
-30 21 -44 1 -26 1 -26 14 5 8 17 21 36 29 43 14 12 14 16 -4 38 -11 14 -20
32 -20 39 0 8 -4 14 -10 14 -5 0 -10 -6 -10 -14z m18 -69 c2 -9 -2 -17 -8 -17
-7 0 -9 7 -6 16 5 12 2 15 -9 10 -10 -3 -13 -2 -10 5 9 14 29 6 33 -14z"/>
<path d="M890 2220 c-9 -6 -10 -10 -3 -10 6 0 15 5 18 10 8 12 4 12 -15 0z"/>
<path d="M978 2223 c7 -3 16 -2 19 1 4 3 -2 6 -13 5 -11 0 -14 -3 -6 -6z"/>
<path d="M803 2145 c0 -8 4 -12 9 -9 5 3 6 10 3 15 -9 13 -12 11 -12 -6z"/>
<path d="M2072 2120 c0 -14 2 -19 5 -12 2 6 2 18 0 25 -3 6 -5 1 -5 -13z"/>
<path d="M1989 1963 c-13 -16 -12 -17 4 -4 9 7 17 15 17 17 0 8 -8 3 -21 -13z"/>
<path d="M2115 1780 c-4 -6 -11 -8 -16 -5 -16 10 -10 -2 9 -16 9 -7 14 -9 10
-5 -4 5 -3 15 3 23 6 7 9 13 6 13 -3 0 -9 -5 -12 -10z"/>
<path d="M528 1628 c5 -5 16 -8 23 -6 8 3 3 7 -10 11 -17 4 -21 3 -13 -5z"/>
<path d="M2285 1600 c-4 -6 -11 -8 -16 -5 -5 3 -6 -1 -3 -10 4 -9 7 -15 8 -13
1 2 8 11 15 21 7 9 11 17 8 17 -3 0 -9 -5 -12 -10z"/>
<path d="M603 1455 c0 -8 4 -12 9 -9 5 3 6 10 3 15 -9 13 -12 11 -12 -6z"/>
<path d="M2304 1159 c-3 -6 -2 -15 3 -20 5 -5 9 -1 9 11 0 23 -2 24 -12 9z"/>
<path d="M483 995 c0 -8 4 -12 9 -9 5 3 6 10 3 15 -9 13 -12 11 -12 -6z"/>
<path d="M2305 980 c6 -10 4 -12 -11 -6 -15 6 -17 5 -6 -5 9 -9 15 -10 23 -2
8 8 7 13 -2 18 -8 6 -10 4 -4 -5z"/>
<path d="M2070 929 c0 -5 5 -7 10 -4 6 3 10 8 10 11 0 2 -4 4 -10 4 -5 0 -10
-5 -10 -11z"/>
<path d="M563 793 c1 -18 6 -28 10 -24 4 4 3 18 -2 32 -9 23 -9 22 -8 -8z"/>
<path d="M2226 757 c3 -10 9 -15 12 -12 3 3 0 11 -7 18 -10 9 -11 8 -5 -6z"/>
<path d="M2072 635 c0 -16 2 -22 5 -12 2 9 2 23 0 30 -3 6 -5 -1 -5 -18z"/>
<path d="M986 593 c-6 -14 -5 -15 5 -6 7 7 10 15 7 18 -3 3 -9 -2 -12 -12z"/>
<path d="M1061 563 c-1 -13 -10 -32 -22 -44 -21 -21 -21 -21 -1 -42 11 -12 22
-31 24 -42 5 -20 5 -20 13 0 4 11 17 30 29 43 20 22 20 24 3 33 -10 6 -24 25
-31 42 -12 28 -14 29 -15 10z m9 -64 c-7 -11 -7 -19 -1 -19 5 0 12 6 14 13 4
9 6 9 6 0 2 -21 -21 -26 -37 -8 -11 12 -12 15 -3 10 11 -6 13 -4 8 7 -6 18 1
30 14 22 5 -3 4 -14 -1 -25z"/>
<path d="M1310 510 c-6 -11 -8 -20 -6 -20 3 0 10 9 16 20 6 11 8 20 6 20 -3 0
-10 -9 -16 -20z"/>
<path d="M1976 513 c-6 -14 -5 -15 5 -6 7 7 10 15 7 18 -3 3 -9 -2 -12 -12z"/>
<path d="M803 501 c0 -9 9 -17 19 -17 10 0 18 1 18 1 0 0 -9 8 -19 17 -18 16
-20 15 -18 -1z"/>
<path d="M976 488 c3 -5 10 -6 15 -3 13 9 11 12 -6 12 -8 0 -12 -4 -9 -9z"/>
<path d="M1490 496 c0 -2 7 -7 16 -10 8 -3 12 -2 9 4 -6 10 -25 14 -25 6z"/>
<path d="M1589 428 c-5 -16 -4 -46 2 -42 4 2 7 13 6 24 -1 17 -5 26 -8 18z"/>
<path d="M1670 408 c0 -4 4 -8 9 -8 6 0 12 4 15 8 3 5 -1 9 -9 9 -8 0 -15 -4
-15 -9z"/>
<path d="M1579 353 c-13 -16 -12 -17 4 -4 16 13 21 21 13 21 -2 0 -10 -8 -17
-17z"/>
<path d="M1498 338 c7 -9 21 -14 32 -11 25 7 26 15 3 11 -10 -1 -25 2 -33 7
-13 7 -13 6 -2 -7z"/>
<path d="M1360 110 c0 -5 9 -14 20 -20 11 -6 20 -9 20 -8 0 2 -9 11 -20 21
-11 9 -20 13 -20 7z"/>
</g>
</svg>
